<svg width="18" height="20" viewBox="0 0 18 20" fill="none" xmlns="http://www.w3.org/2000/svg">
<path d="M8.88841 1.875C8.88841 1.37772 9.12824 0.900805 9.55514 0.549175C9.98204 0.197544 10.561 0 11.1648 0C11.7685 0 12.3475 0.197544 12.7744 0.549175C13.2013 0.900805 13.4411 1.37772 13.4411 1.875C13.4411 2.37228 13.2013 2.84919 12.7744 3.20083C12.3475 3.55246 11.7685 3.75 11.1648 3.75C10.561 3.75 9.98204 3.55246 9.55514 3.20083C9.12824 2.84919 8.88841 2.37228 8.88841 1.875ZM11.3213 9.01172L10.4155 11.9922L12.7724 13.9336C13.1993 14.2852 13.4411 14.7617 13.4411 15.2578V18.75C13.4411 19.4414 12.763 20 11.9235 20C11.0841 20 10.406 19.4414 10.406 18.75V15.5195L6.90134 12.6328C6.15203 12.0156 5.84852 11.125 6.09987 10.2773L7.06732 6.99609C7.46094 5.66406 9.09233 4.85156 10.7048 5.18359C11.6058 5.37109 12.393 5.82422 12.9052 6.46094L14.2521 8.125H15.7175V7.1875C15.7175 6.66797 16.2249 6.25 16.8557 6.25C17.4864 6.25 17.9938 6.66797 17.9938 7.1875V9.36719C17.9938 9.37109 17.9938 9.375 17.9938 9.375V9.38281V19.0625C17.9938 19.582 17.4864 20 16.8557 20C16.2249 20 15.7175 19.582 15.7175 19.0625V10.625H13.849C13.0902 10.625 12.3788 10.3125 11.9567 9.78906L11.326 9.00781L11.3213 9.01172ZM3.62907 18.4336L5.34582 13.0469C5.4881 13.2109 5.64934 13.3672 5.82481 13.5117L7.81188 15.1484L6.55988 19.0664C6.34647 19.7344 5.51655 20.1328 4.7056 19.957C3.89465 19.7812 3.41092 19.0977 3.62433 18.4297L3.62907 18.4336ZM6.26111 4.91797L4.59178 10.4102C4.44951 10.8828 3.88516 11.1875 3.30184 11.1094L1.03023 10.7969C0.366291 10.707 -0.0557835 10.1602 0.119686 9.625L1.2958 6.05469C1.74633 4.69531 3.24494 3.75 4.95695 3.75H5.15613C5.89594 3.75 6.44132 4.32422 6.26111 4.91406V4.91797Z" fill="white"/>
</svg>
