<svg width="24" height="20" viewBox="0 0 24 20" fill="none" xmlns="http://www.w3.org/2000/svg">
<g clip-path="url(#clip0_120_265)">
<path d="M10.75 1.25C10.0586 1.25 9.5 1.80859 9.5 2.5V2.58984V6.48047C9.5 6.69922 9.32422 6.875 9.10547 6.875C8.96484 6.875 8.83203 6.80078 8.76172 6.67578L6.88672 3.39844C3.99219 4.82422 2 7.80469 2 11.25V13.75H22V11.1562C21.9648 7.75 19.9805 4.8125 17.1133 3.39844L15.2383 6.67578C15.168 6.80078 15.0352 6.875 14.8945 6.875C14.6758 6.875 14.5 6.69922 14.5 6.48047V2.58984V2.5C14.5 1.80859 13.9414 1.25 13.25 1.25H10.75ZM1.39844 15C1.03906 15 0.75 15.2891 0.75 15.6484C0.75 15.832 0.828125 16.0078 0.976562 16.1133C1.82422 16.7344 5.11719 18.75 12 18.75C18.8828 18.75 22.1758 16.7344 23.0234 16.1133C23.1719 16.0039 23.25 15.832 23.25 15.6484C23.25 15.2891 22.9609 15 22.6016 15H1.39844Z" fill="#F44C34"/>
</g>
<defs>
<clipPath id="clip0_120_265">
<path d="M0.75 0H23.25V20H0.75V0Z" fill="white"/>
</clipPath>
</defs>
</svg>
