<svg width="21" height="20" viewBox="0 0 21 20" fill="none" xmlns="http://www.w3.org/2000/svg">
<g clip-path="url(#clip0_120_247)">
<path d="M2.48438 11.7343L9.54297 18.3242C9.83594 18.5976 10.2227 18.75 10.625 18.75C11.0273 18.75 11.4141 18.5976 11.707 18.3242L18.7656 11.7343C19.9531 10.6289 20.625 9.07809 20.625 7.457V7.23043C20.625 4.49997 18.6523 2.17184 15.9609 1.72262C14.1797 1.42575 12.3672 2.00778 11.0938 3.28122L10.625 3.74997L10.1562 3.28122C8.88281 2.00778 7.07031 1.42575 5.28906 1.72262C2.59766 2.17184 0.625 4.49997 0.625 7.23043V7.457C0.625 9.07809 1.29687 10.6289 2.48438 11.7343Z" fill="#F44C34"/>
</g>
<defs>
<clipPath id="clip0_120_247">
<path d="M0.625 0H20.625V20H0.625V0Z" fill="white"/>
</clipPath>
</defs>
</svg>
