<svg width="26" height="20" viewBox="0 0 26 20" fill="none" xmlns="http://www.w3.org/2000/svg">
<g clip-path="url(#clip0_120_274)">
<path d="M6.20312 0C7.03193 0 7.82678 0.32924 8.41283 0.915291C8.99889 1.50134 9.32812 2.2962 9.32812 3.125C9.32812 3.9538 8.99889 4.74866 8.41283 5.33471C7.82678 5.92076 7.03193 6.25 6.20312 6.25C5.37432 6.25 4.57947 5.92076 3.99342 5.33471C3.40737 4.74866 3.07812 3.9538 3.07812 3.125C3.07812 2.2962 3.40737 1.50134 3.99342 0.915291C4.57947 0.32924 5.37432 0 6.20312 0ZM20.5781 0C21.4069 0 22.2018 0.32924 22.7878 0.915291C23.3739 1.50134 23.7031 2.2962 23.7031 3.125C23.7031 3.9538 23.3739 4.74866 22.7878 5.33471C22.2018 5.92076 21.4069 6.25 20.5781 6.25C19.7493 6.25 18.9545 5.92076 18.3684 5.33471C17.7824 4.74866 17.4531 3.9538 17.4531 3.125C17.4531 2.2962 17.7824 1.50134 18.3684 0.915291C18.9545 0.32924 19.7493 0 20.5781 0ZM0.578125 11.668C0.578125 9.36719 2.44531 7.5 4.74609 7.5H6.41406C7.03516 7.5 7.625 7.63672 8.15625 7.87891C8.10547 8.16016 8.08203 8.45312 8.08203 8.75C8.08203 10.2422 8.73828 11.582 9.77344 12.5C9.76562 12.5 9.75781 12.5 9.74609 12.5H1.41016C0.953125 12.5 0.578125 12.125 0.578125 11.668ZM16.4102 12.5C16.4023 12.5 16.3945 12.5 16.3828 12.5C17.4219 11.582 18.0742 10.2422 18.0742 8.75C18.0742 8.45312 18.0469 8.16406 18 7.87891C18.5312 7.63281 19.1211 7.5 19.7422 7.5H21.4102C23.7109 7.5 25.5781 9.36719 25.5781 11.668C25.5781 12.1289 25.2031 12.5 24.7461 12.5H16.4102ZM9.32812 8.75C9.32812 7.75544 9.72321 6.80161 10.4265 6.09835C11.1297 5.39509 12.0836 5 13.0781 5C14.0727 5 15.0265 5.39509 15.7298 6.09835C16.433 6.80161 16.8281 7.75544 16.8281 8.75C16.8281 9.74456 16.433 10.6984 15.7298 11.4017C15.0265 12.1049 14.0727 12.5 13.0781 12.5C12.0836 12.5 11.1297 12.1049 10.4265 11.4017C9.72321 10.6984 9.32812 9.74456 9.32812 8.75ZM5.57812 18.957C5.57812 16.082 7.91016 13.75 10.7852 13.75H15.3711C18.2461 13.75 20.5781 16.082 20.5781 18.957C20.5781 19.5312 20.1133 20 19.5352 20H6.62109C6.04688 20 5.57812 19.5352 5.57812 18.957Z" fill="#F44C34"/>
</g>
<defs>
<clipPath id="clip0_120_274">
<path d="M0.578125 0H25.5781V20H0.578125V0Z" fill="white"/>
</clipPath>
</defs>
</svg>
