<svg width="24" height="24" viewBox="0 0 24 24" fill="none" xmlns="http://www.w3.org/2000/svg">
<g clip-path="url(#clip0_120_187)">
<path d="M14.9345 0.440613C14.3485 -0.145325 13.397 -0.145325 12.811 0.440613L7.18604 6.06561C6.6001 6.65155 6.6001 7.60311 7.18604 8.18905L7.93604 8.93905C8.52197 9.52499 9.47354 9.52499 10.0595 8.93905L10.247 8.75155L15.2532 13.7531L15.0657 13.9406C14.4798 14.5266 14.4798 15.4781 15.0657 16.0641L15.8157 16.8141C16.4017 17.4 17.3532 17.4 17.9392 16.8141L23.5642 11.1891C24.1501 10.6031 24.1501 9.65155 23.5642 9.06561L22.8142 8.31561C22.2282 7.72968 21.2767 7.72968 20.6907 8.31561L20.5032 8.50311L15.497 3.49686L15.6845 3.30936C16.2704 2.72343 16.2704 1.77186 15.6845 1.18593L14.9345 0.435925V0.440613ZM7.80947 13.9406C7.22354 13.3547 6.27197 13.3547 5.68604 13.9406L0.436035 19.1906C-0.149902 19.7766 -0.149902 20.7281 0.436035 21.3141L2.68604 23.5641C3.27197 24.15 4.22354 24.15 4.80947 23.5641L10.0595 18.3141C10.6454 17.7281 10.6454 16.7766 10.0595 16.1906L9.99385 16.125L12.7501 13.3734L10.6267 11.25L7.8751 14.0016L7.80947 13.9359V13.9406Z" fill="white"/>
</g>
<defs>
<clipPath id="clip0_120_187">
<path d="M0 0H24V24H0V0Z" fill="white"/>
</clipPath>
</defs>
</svg>
