<svg width="21" height="20" viewBox="0 0 21 20" fill="none" xmlns="http://www.w3.org/2000/svg">
<g clip-path="url(#clip0_120_285)">
<path d="M18.7031 4.93359C18.543 4.97656 18.375 5 18.2031 5C17.168 5 16.3281 4.17969 16.3281 3.16406C16.3281 2.96875 16.3984 2.72266 16.5078 2.45703C16.5195 2.42969 16.5312 2.40234 16.543 2.375C16.8945 1.58594 17.5781 0.621094 17.9492 0.128906C18.0742 -0.0429687 18.3242 -0.0429687 18.4492 0.128906C18.9609 0.804688 20.0781 2.38281 20.0781 3.16406C20.0781 4.01172 19.4961 4.71875 18.7031 4.93359ZM10.0781 4.65661e-09C12.0859 4.65661e-09 13.957 0.59375 15.5234 1.60938C15.4648 1.73047 15.4062 1.85156 15.3555 1.97266C15.2227 2.28516 15.0781 2.71484 15.0781 3.16406C15.0781 4.89453 16.5078 6.25 18.2031 6.25C18.5781 6.25 18.9375 6.18359 19.2734 6.0625C19.793 7.26953 20.0781 8.60156 20.0781 10C20.0781 15.5234 15.6016 20 10.0781 20C4.55469 20 0.078125 15.5234 0.078125 10C0.078125 4.47656 4.55469 4.65661e-09 10.0781 4.65661e-09ZM15.0703 12.4141C13.5664 12.8672 11.8711 13.125 10.0781 13.125C8.28516 13.125 6.58984 12.8672 5.08594 12.4141C4.60547 12.2695 4.13672 12.6875 4.33594 13.1445C5.29297 15.3672 7.50391 16.9219 10.0781 16.9219C12.6523 16.9219 14.8633 15.3672 15.8203 13.1445C16.0195 12.6836 15.5508 12.2695 15.0703 12.4141ZM8.57812 8.9375C8.66016 9.04688 8.80078 9.08984 8.92578 9.04688C9.05078 9.00391 9.14062 8.88672 9.14062 8.75C9.14062 8.05078 8.87891 7.35938 8.49219 6.84375C8.10938 6.33594 7.55859 5.9375 6.95312 5.9375C6.34766 5.9375 5.79688 6.33594 5.41406 6.84375C5.02734 7.35938 4.76562 8.05078 4.76562 8.75C4.76562 8.88281 4.85156 9.00391 4.98047 9.04688C5.10938 9.08984 5.25 9.04688 5.32812 8.9375L5.33594 8.92969C5.34375 8.92188 5.35156 8.91016 5.36328 8.89453C5.38672 8.86328 5.42578 8.81641 5.47266 8.76172C5.57031 8.65234 5.70703 8.50391 5.87109 8.35938C6.21484 8.05469 6.60547 7.8125 6.95312 7.8125C7.30078 7.8125 7.69141 8.05469 8.03516 8.35938C8.19922 8.50391 8.33594 8.65234 8.43359 8.76172C8.48047 8.81641 8.51953 8.86328 8.54297 8.89453C8.55469 8.91016 8.56641 8.92188 8.57031 8.92969L8.57812 8.9375ZM14.8281 8.9375C14.9102 9.04688 15.0508 9.08984 15.1758 9.04688C15.3008 9.00391 15.3906 8.88672 15.3906 8.75C15.3906 8.05078 15.1289 7.35938 14.7422 6.84375C14.3594 6.33594 13.8086 5.9375 13.2031 5.9375C12.5977 5.9375 12.0469 6.33594 11.6641 6.84375C11.2773 7.35938 11.0156 8.05078 11.0156 8.75C11.0156 8.88281 11.1016 9.00391 11.2305 9.04688C11.3594 9.08984 11.5 9.04688 11.5781 8.9375L11.5859 8.92969C11.5938 8.92188 11.6016 8.91016 11.6133 8.89453C11.6367 8.86328 11.6758 8.81641 11.7227 8.76172C11.8203 8.65234 11.957 8.50391 12.1211 8.35938C12.4648 8.05469 12.8555 7.8125 13.2031 7.8125C13.5508 7.8125 13.9414 8.05469 14.2852 8.35938C14.4492 8.50391 14.5859 8.65234 14.6836 8.76172C14.7305 8.81641 14.7695 8.86328 14.793 8.89453C14.8047 8.91016 14.8164 8.92188 14.8203 8.92969L14.8281 8.9375Z" fill="#F44C34"/>
</g>
<defs>
<clipPath id="clip0_120_285">
<path d="M0.078125 0H20.0781V20H0.078125V0Z" fill="white"/>
</clipPath>
</defs>
</svg>
