<svg width="30" height="24" viewBox="0 0 30 24" fill="none" xmlns="http://www.w3.org/2000/svg">
<g clip-path="url(#clip0_120_163)">
<path d="M10.5 12C12.0913 12 13.6174 11.3679 14.7426 10.2426C15.8679 9.11742 16.5 7.5913 16.5 6C16.5 4.4087 15.8679 2.88258 14.7426 1.75736C13.6174 0.632141 12.0913 0 10.5 0C8.9087 0 7.38258 0.632141 6.25736 1.75736C5.13214 2.88258 4.5 4.4087 4.5 6C4.5 7.5913 5.13214 9.11742 6.25736 10.2426C7.38258 11.3679 8.9087 12 10.5 12ZM8.35781 14.25C3.74063 14.25 0 17.9906 0 22.6078C0 23.3766 0.623438 24 1.39219 24H19.6078C19.6922 24 19.7719 23.9906 19.8563 23.9766C16.2797 21.3937 15.1781 17.3672 15.0234 14.5922C14.2688 14.3672 13.4719 14.25 12.6469 14.25H8.35781ZM22.8328 10.5797L17.2078 12.8297C16.7812 13.0031 16.5 13.4156 16.5 13.875C16.5 16.8422 17.7141 21.7875 22.8187 23.9156C23.0953 24.0328 23.4094 24.0328 23.6859 23.9156C28.7859 21.7875 30 16.8422 30 13.875C30 13.4156 29.7188 13.0031 29.2922 12.8297L23.6672 10.5797C23.4 10.4719 23.1 10.4719 22.8328 10.5797ZM27.7219 14.625C27.5391 17.0016 26.4469 20.0953 23.25 21.6422V12.8344L27.7219 14.625Z" fill="white"/>
</g>
<defs>
<clipPath id="clip0_120_163">
<path d="M0 0H30V24H0V0Z" fill="white"/>
</clipPath>
</defs>
</svg>
