<svg width="21" height="20" viewBox="0 0 21 20" fill="none" xmlns="http://www.w3.org/2000/svg">
<g clip-path="url(#clip0_120_256)">
<path d="M10.7656 1.25C11.2539 1.25 11.707 1.5 11.9688 1.91406L20.4297 15.4062C20.6484 15.7539 20.7656 16.1562 20.7656 16.5664C20.7656 17.7734 19.7891 18.75 18.582 18.75H2.94922C1.74219 18.75 0.765625 17.7734 0.765625 16.5664C0.765625 16.1562 0.882813 15.7539 1.10156 15.4062L9.5625 1.91406C9.82031 1.5 10.2773 1.25 10.7656 1.25ZM13.3047 8.75L10.7656 4.70312L7.67578 9.62891L8.39062 10.582C8.64062 10.9141 9.14062 10.9141 9.39062 10.582L10.3906 9.25C10.625 8.93359 10.9961 8.75 11.3906 8.75H13.3047Z" fill="#F44C34"/>
</g>
<defs>
<clipPath id="clip0_120_256">
<path d="M0.765625 0H20.7656V20H0.765625V0Z" fill="white"/>
</clipPath>
</defs>
</svg>
