<svg width="16" height="20" viewBox="0 0 16 20" fill="none" xmlns="http://www.w3.org/2000/svg">
<g clip-path="url(#clip0_120_238)">
<path d="M7.95324 1.875C7.95324 1.37772 8.15078 0.900805 8.50241 0.549175C8.85404 0.197544 9.33095 0 9.82824 0C10.3255 0 10.8024 0.197544 11.1541 0.549175C11.5057 0.900805 11.7032 1.37772 11.7032 1.875C11.7032 2.37228 11.5057 2.84919 11.1541 3.20083C10.8024 3.55246 10.3255 3.75 9.82824 3.75C9.33095 3.75 8.85404 3.55246 8.50241 3.20083C8.15078 2.84919 7.95324 2.37228 7.95324 1.875ZM9.95714 9.01172L9.21105 11.9922L11.1525 13.9336C11.504 14.2852 11.7032 14.7617 11.7032 15.2578V18.75C11.7032 19.4414 11.1446 20 10.4532 20C9.76183 20 9.20324 19.4414 9.20324 18.75V15.5195L6.31652 12.6328C5.69933 12.0156 5.44933 11.125 5.65636 10.2773L6.45324 6.99609C6.77745 5.66406 8.1212 4.85156 9.44933 5.18359C10.1915 5.37109 10.84 5.82422 11.2618 6.46094L12.3712 8.125H13.5782V7.1875C13.5782 6.66797 13.9962 6.25 14.5157 6.25C15.0353 6.25 15.4532 6.66797 15.4532 7.1875V9.36719C15.4532 9.37109 15.4532 9.375 15.4532 9.375V9.38281V19.0625C15.4532 19.582 15.0353 20 14.5157 20C13.9962 20 13.5782 19.582 13.5782 19.0625V10.625H12.0392C11.4142 10.625 10.8282 10.3125 10.4806 9.78906L9.96105 9.00781L9.95714 9.01172ZM3.6212 18.4336L5.03527 13.0469C5.15245 13.2109 5.28527 13.3672 5.4298 13.5117L7.06652 15.1484L6.03527 19.0664C5.85949 19.7344 5.17589 20.1328 4.50792 19.957C3.83995 19.7812 3.44152 19.0977 3.6173 18.4297L3.6212 18.4336ZM5.78917 4.91797L4.41417 10.4102C4.29699 10.8828 3.83214 11.1875 3.35167 11.1094L1.48058 10.7969C0.933704 10.707 0.586048 10.1602 0.730579 9.625L1.69933 6.05469C2.07042 4.69531 3.3048 3.75 4.71495 3.75H4.87902C5.48839 3.75 5.93761 4.32422 5.78917 4.91406V4.91797Z" fill="#F44C34"/>
</g>
<defs>
<clipPath id="clip0_120_238">
<path d="M0.453125 0H15.4531V20H0.453125V0Z" fill="white"/>
</clipPath>
</defs>
</svg>
