<svg width="30" height="24" viewBox="0 0 30 24" fill="none" xmlns="http://www.w3.org/2000/svg">
<g clip-path="url(#clip0_156_47)">
<path d="M15 1.5C14.6203 1.5 14.2453 1.56562 13.8891 1.69219L0.740614 6.44062C0.295302 6.60469 -1.09092e-05 7.02656 -1.09092e-05 7.5C-1.09092e-05 7.97344 0.295302 8.39531 0.740614 8.55938L3.45468 9.53906C2.68593 10.7484 2.24999 12.1781 2.24999 13.6828V15C2.24999 16.3313 1.74374 17.7047 1.20468 18.7875C0.899989 19.3969 0.553114 19.9969 0.149989 20.55C-1.09076e-05 20.7516 -0.0421984 21.0141 0.0421766 21.2531C0.126552 21.4922 0.323427 21.6703 0.567177 21.7313L3.56718 22.4813C3.76405 22.5328 3.97499 22.4953 4.14843 22.3875C4.32186 22.2797 4.44374 22.1016 4.48124 21.9C4.88436 19.8938 4.6828 18.0938 4.3828 16.8047C4.2328 16.1391 4.03124 15.4594 3.74999 14.8359V13.6828C3.74999 12.2672 4.22811 10.9312 5.0578 9.8625C5.66249 9.13594 6.4453 8.55 7.36405 8.18906L14.7234 5.29688C15.1078 5.14687 15.5437 5.33437 15.6937 5.71875C15.8437 6.10313 15.6562 6.53906 15.2719 6.68906L7.91249 9.58125C7.33124 9.81094 6.8203 10.1625 6.40311 10.5938L13.8844 13.2938C14.2406 13.4203 14.6156 13.4859 14.9953 13.4859C15.375 13.4859 15.75 13.4203 16.1062 13.2938L29.2594 8.55938C29.7047 8.4 30 7.97344 30 7.5C30 7.02656 29.7047 6.60469 29.2594 6.44062L16.1109 1.69219C15.7547 1.56562 15.3797 1.5 15 1.5ZM5.99999 19.125C5.99999 20.7797 10.0312 22.5 15 22.5C19.9687 22.5 24 20.7797 24 19.125L23.2828 12.3094L16.6172 14.7188C16.0969 14.9062 15.5484 15 15 15C14.4516 15 13.8984 14.9062 13.3828 14.7188L6.71718 12.3094L5.99999 19.125Z" fill="white"/>
</g>
<defs>
<clipPath id="clip0_156_47">
<path d="M0 0H30V24H0V0Z" fill="white"/>
</clipPath>
</defs>
</svg>
