<svg width="15" height="20" viewBox="0 0 15 20" fill="none" xmlns="http://www.w3.org/2000/svg">
<path d="M7.25548 1.875C7.25548 1.37772 7.45303 0.900805 7.80466 0.549175C8.15629 0.197544 8.6332 0 9.13048 0C9.62776 0 10.1047 0.197544 10.4563 0.549175C10.8079 0.900805 11.0055 1.37772 11.0055 1.875C11.0055 2.37228 10.8079 2.84919 10.4563 3.20083C10.1047 3.55246 9.62776 3.75 9.13048 3.75C8.6332 3.75 8.15629 3.55246 7.80466 3.20083C7.45303 2.84919 7.25548 2.37228 7.25548 1.875ZM9.25939 9.01172L8.51329 11.9922L10.4547 13.9336C10.8063 14.2852 11.0055 14.7617 11.0055 15.2578V18.75C11.0055 19.4414 10.4469 20 9.75548 20C9.06408 20 8.50548 19.4414 8.50548 18.75V15.5195L5.61876 12.6328C5.00158 12.0156 4.75157 11.125 4.95861 10.2773L5.75548 6.99609C6.0797 5.66406 7.42345 4.85156 8.75158 5.18359C9.49376 5.37109 10.1422 5.82422 10.5641 6.46094L11.6735 8.125H12.8805V7.1875C12.8805 6.66797 13.2985 6.25 13.818 6.25C14.3375 6.25 14.7555 6.66797 14.7555 7.1875V9.36719C14.7555 9.37109 14.7555 9.375 14.7555 9.375V9.38281V19.0625C14.7555 19.582 14.3375 20 13.818 20C13.2985 20 12.8805 19.582 12.8805 19.0625V10.625H11.3414C10.7164 10.625 10.1305 10.3125 9.78283 9.78906L9.26329 9.00781L9.25939 9.01172ZM2.92345 18.4336L4.33751 13.0469C4.4547 13.2109 4.58751 13.3672 4.73204 13.5117L6.36876 15.1484L5.33751 19.0664C5.16173 19.7344 4.47814 20.1328 3.81017 19.957C3.1422 19.7812 2.74376 19.0977 2.91954 18.4297L2.92345 18.4336ZM5.09142 4.91797L3.71642 10.4102C3.59923 10.8828 3.13439 11.1875 2.65392 11.1094L0.782825 10.7969C0.23595 10.707 -0.111706 10.1602 0.0328253 9.625L1.00158 6.05469C1.37267 4.69531 2.60704 3.75 4.0172 3.75H4.18126C4.79064 3.75 5.23986 4.32422 5.09142 4.91406V4.91797Z" fill="white"/>
</svg>
