<svg width="24" height="22" viewBox="0 0 24 22" fill="none" xmlns="http://www.w3.org/2000/svg">
<path d="M12 0.5C12.5859 0.5 13.1297 0.8 13.4437 1.29688L23.5969 17.4875C23.8594 17.9047 24 18.3875 24 18.8797C24 20.3281 22.8281 21.5 21.3797 21.5H2.62031C1.17188 21.5 0 20.3281 0 18.8797C0 18.3875 0.140625 17.9047 0.403125 17.4875L10.5562 1.29688C10.8656 0.8 11.4141 0.5 12 0.5ZM15.0469 9.5L12 4.64375L8.29219 10.5547L9.15 11.6984C9.45 12.0969 10.05 12.0969 10.35 11.6984L11.55 10.1C11.8312 9.72031 12.2766 9.5 12.75 9.5H15.0469Z" fill="white"/>
</svg>
