<svg width="28" height="24" viewBox="0 0 28 24" fill="none" xmlns="http://www.w3.org/2000/svg">
<g clip-path="url(#clip0_156_71)">
<path d="M13.1328 3.2765C13.6532 2.90619 14.3469 2.90619 14.8672 3.2765C15.9219 4.00307 17.211 4.49994 18.5 4.49994C19.761 4.49994 21.0969 3.99369 22.1282 3.2765C22.686 2.87807 23.4453 2.91088 23.9657 3.35619C24.6407 3.914 25.4891 4.34057 26.3375 4.53744C27.1438 4.72494 27.6453 5.53119 27.4578 6.33744C27.2703 7.14369 26.4641 7.64525 25.6578 7.45775C24.5094 7.19057 23.5532 6.68432 22.9297 6.28588C21.5703 7.01713 20.0469 7.49994 18.5 7.49994C17.0047 7.49994 15.6594 7.03588 14.7313 6.614C14.4594 6.48744 14.211 6.36557 14 6.25307C13.7891 6.36557 13.5453 6.49213 13.2688 6.614C12.3407 7.03588 10.9953 7.49994 9.50004 7.49994C7.95316 7.49994 6.42972 7.01713 5.07035 6.29057C4.44222 6.68432 3.49066 7.19525 2.34222 7.46244C1.53597 7.64994 0.729723 7.14838 0.542223 6.34213C0.354723 5.53588 0.856285 4.72963 1.66254 4.54213C2.50629 4.34057 3.35941 3.914 4.02972 3.35619C4.55004 2.91088 5.30941 2.88275 5.86722 3.2765C6.90785 3.99369 8.2391 4.49994 9.50004 4.49994C10.7891 4.49994 12.0782 4.00307 13.1328 3.2765ZM14.8672 16.7765C15.9219 17.5031 17.211 17.9999 18.5 17.9999C19.761 17.9999 21.0969 17.4937 22.1282 16.7765C22.686 16.3781 23.4453 16.4109 23.9657 16.8562C24.6407 17.414 25.4891 17.8406 26.3375 18.0374C27.1438 18.2249 27.6453 19.0312 27.4578 19.8374C27.2703 20.6437 26.4641 21.1453 25.6578 20.9578C24.5094 20.6906 23.5532 20.1843 22.9297 19.7859C21.5703 20.5171 20.0469 20.9999 18.5 20.9999C17.0047 20.9999 15.6594 20.5359 14.7313 20.114C14.4594 19.9874 14.211 19.8656 14 19.7531C13.7891 19.8656 13.5453 19.9921 13.2688 20.114C12.3407 20.5359 10.9953 20.9999 9.50004 20.9999C7.95316 20.9999 6.42972 20.5171 5.07035 19.7906C4.44222 20.1843 3.49066 20.6953 2.34222 20.9624C1.53597 21.1499 0.729723 20.6484 0.542223 19.8421C0.354723 19.0359 0.856285 18.2296 1.66254 18.0421C2.51097 17.8453 3.35941 17.4187 4.03441 16.8609C4.55472 16.4203 5.3141 16.3874 5.87191 16.7812C6.90785 17.4937 8.2391 17.9999 9.50004 17.9999C10.7891 17.9999 12.0782 17.5031 13.1328 16.7765C13.6532 16.4062 14.3469 16.4062 14.8672 16.7765ZM14.8672 10.0265C15.9219 10.7531 17.211 11.2499 18.5 11.2499C19.761 11.2499 21.0969 10.7437 22.1282 10.0265C22.686 9.62807 23.4453 9.66088 23.9657 10.1062C24.6407 10.664 25.4891 11.0906 26.3375 11.2874C27.1438 11.4749 27.6453 12.2812 27.4578 13.0874C27.2703 13.8937 26.4641 14.3953 25.6578 14.2078C24.5094 13.9406 23.5532 13.4343 22.9297 13.0359C21.5703 13.7671 20.0469 14.2499 18.5 14.2499C17.0047 14.2499 15.6594 13.7859 14.7313 13.364C14.4594 13.2374 14.211 13.1156 14 13.0031C13.7891 13.1156 13.5453 13.2421 13.2688 13.364C12.3407 13.7859 10.9953 14.2499 9.50004 14.2499C7.95316 14.2499 6.42972 13.7671 5.07035 13.0406C4.44222 13.4343 3.49066 13.9453 2.34222 14.2124C1.53597 14.3999 0.729723 13.8984 0.542223 13.0921C0.354723 12.2859 0.856285 11.4796 1.66254 11.2921C2.51097 11.0953 3.35941 10.6687 4.03441 10.1109C4.55472 9.66557 5.3141 9.63744 5.87191 10.0312C6.90785 10.7437 8.2391 11.2499 9.50004 11.2499C10.7891 11.2499 12.0782 10.7531 13.1328 10.0265C13.6532 9.65619 14.3469 9.65619 14.8672 10.0265Z" fill="white"/>
</g>
<defs>
<clipPath id="clip0_156_71">
<path d="M0.5 0H27.5V24H0.5V0Z" fill="white"/>
</clipPath>
</defs>
</svg>
